<svg width="130" height="52" viewBox="0 0 130 52" fill="none" xmlns="http://www.w3.org/2000/svg">
<rect width="130" height="52" rx="26" fill="#3671E9"/>
<path d="M33.9445 31C33.8378 31 33.7472 30.9627 33.6725 30.888C33.5978 30.8133 33.5605 30.7227 33.5605 30.616V20.2C33.5605 20.0827 33.5925 19.9867 33.6565 19.912C33.7312 19.8373 33.8272 19.8 33.9445 19.8H38.0885C39.4005 19.8 40.4245 20.104 41.1605 20.712C41.9072 21.32 42.2805 22.184 42.2805 23.304C42.2805 24.0827 42.0938 24.7387 41.7205 25.272C41.3472 25.7947 40.8245 26.1733 40.1525 26.408L42.4725 30.488C42.5045 30.552 42.5205 30.6107 42.5205 30.664C42.5205 30.76 42.4832 30.84 42.4085 30.904C42.3445 30.968 42.2698 31 42.1845 31H40.7125C40.5418 31 40.4085 30.9627 40.3125 30.888C40.2165 30.8027 40.1312 30.696 40.0565 30.568L38.0085 26.776H35.8165V30.616C35.8165 30.7227 35.7792 30.8133 35.7045 30.888C35.6298 30.9627 35.5338 31 35.4165 31H33.9445ZM38.0405 24.952C38.6805 24.952 39.1605 24.8133 39.4805 24.536C39.8005 24.248 39.9605 23.832 39.9605 23.288C39.9605 22.744 39.8005 22.328 39.4805 22.04C39.1605 21.7413 38.6805 21.592 38.0405 21.592H35.8165V24.952H38.0405ZM47.656 31.16C46.4613 31.16 45.512 30.8187 44.808 30.136C44.1147 29.4533 43.7467 28.4827 43.704 27.224L43.688 26.824C43.688 25.4907 44.0347 24.44 44.728 23.672C45.432 22.904 46.4027 22.52 47.64 22.52C48.9093 22.52 49.8853 22.904 50.568 23.672C51.2613 24.44 51.608 25.464 51.608 26.744V27.08C51.608 27.1867 51.5707 27.2773 51.496 27.352C51.4213 27.4267 51.3253 27.464 51.208 27.464H45.896V27.592C45.9173 28.1893 46.0773 28.6853 46.376 29.08C46.6853 29.464 47.1067 29.656 47.64 29.656C48.248 29.656 48.744 29.4107 49.128 28.92C49.224 28.8027 49.2987 28.7333 49.352 28.712C49.4053 28.68 49.496 28.664 49.624 28.664H51.032C51.128 28.664 51.208 28.6907 51.272 28.744C51.3467 28.7973 51.384 28.872 51.384 28.968C51.384 29.224 51.2293 29.528 50.92 29.88C50.6213 30.2213 50.1893 30.52 49.624 30.776C49.0587 31.032 48.4027 31.16 47.656 31.16ZM49.4 26.104V26.072C49.4 25.4427 49.24 24.9413 48.92 24.568C48.6107 24.184 48.184 23.992 47.64 23.992C47.096 23.992 46.6693 24.184 46.36 24.568C46.0507 24.9413 45.896 25.4427 45.896 26.072V26.104H49.4ZM57.066 34.52C56.1167 34.52 55.3487 34.36 54.762 34.04C54.1753 33.7307 53.7593 33.3733 53.514 32.968C53.2687 32.5627 53.146 32.216 53.146 31.928C53.146 31.8213 53.1833 31.7307 53.258 31.656C53.3327 31.592 53.4233 31.56 53.53 31.56H54.954C55.05 31.56 55.13 31.5813 55.194 31.624C55.2687 31.6773 55.3273 31.768 55.37 31.896C55.4873 32.1733 55.6633 32.408 55.898 32.6C56.1327 32.8027 56.4953 32.904 56.986 32.904C57.626 32.904 58.0953 32.76 58.394 32.472C58.6927 32.1947 58.842 31.704 58.842 31V29.912C58.266 30.5947 57.45 30.936 56.394 30.936C55.2847 30.936 54.4473 30.6 53.882 29.928C53.3273 29.256 53.0287 28.3387 52.986 27.176L52.97 26.744L52.986 26.312C53.0287 25.1707 53.3327 24.2533 53.898 23.56C54.4633 22.8667 55.2953 22.52 56.394 22.52C56.9593 22.52 57.4553 22.6267 57.882 22.84C58.3087 23.0533 58.6607 23.3413 58.938 23.704V23.08C58.938 22.9627 58.9753 22.8667 59.05 22.792C59.1353 22.7173 59.2313 22.68 59.338 22.68H60.65C60.7567 22.68 60.8473 22.7173 60.922 22.792C60.9967 22.8667 61.034 22.9627 61.034 23.08L61.05 30.792C61.05 31.976 60.7193 32.8933 60.058 33.544C59.3967 34.1947 58.3993 34.52 57.066 34.52ZM57.002 29.24C57.5993 29.24 58.0473 29.048 58.346 28.664C58.6447 28.28 58.81 27.8107 58.842 27.256C58.8527 27.1707 58.858 27 58.858 26.744C58.858 26.488 58.8527 26.3173 58.842 26.232C58.81 25.6773 58.6447 25.208 58.346 24.824C58.0473 24.44 57.5993 24.248 57.002 24.248C55.85 24.248 55.242 24.952 55.178 26.36L55.162 26.744C55.162 28.408 55.7753 29.24 57.002 29.24ZM63.4854 21.32C63.3787 21.32 63.288 21.2827 63.2134 21.208C63.1387 21.1333 63.1014 21.0427 63.1014 20.936V19.768C63.1014 19.6507 63.1387 19.5547 63.2134 19.48C63.288 19.4053 63.3787 19.368 63.4854 19.368H64.9574C65.0747 19.368 65.1707 19.4053 65.2454 19.48C65.32 19.5547 65.3574 19.6507 65.3574 19.768V20.936C65.3574 21.0427 65.3147 21.1333 65.2294 21.208C65.1547 21.2827 65.064 21.32 64.9574 21.32H63.4854ZM63.5494 31C63.4427 31 63.352 30.9627 63.2774 30.888C63.2027 30.8133 63.1654 30.7227 63.1654 30.616V23.064C63.1654 22.9467 63.2027 22.856 63.2774 22.792C63.352 22.7173 63.4427 22.68 63.5494 22.68H64.9094C65.016 22.68 65.1067 22.7173 65.1814 22.792C65.256 22.8667 65.2934 22.9573 65.2934 23.064V30.616C65.2934 30.7227 65.256 30.8133 65.1814 30.888C65.1067 30.9627 65.016 31 64.9094 31H63.5494ZM70.5677 31.16C69.7571 31.16 69.0798 31.0373 68.5358 30.792C67.9918 30.5467 67.5864 30.264 67.3198 29.944C67.0638 29.6133 66.9358 29.3307 66.9358 29.096C66.9358 28.9893 66.9678 28.904 67.0318 28.84C67.1064 28.776 67.1918 28.744 67.2878 28.744H68.5998C68.6851 28.744 68.7598 28.7867 68.8238 28.872C68.8771 28.9147 68.9944 29.016 69.1758 29.176C69.3678 29.336 69.5811 29.464 69.8158 29.56C70.0611 29.6453 70.3278 29.688 70.6158 29.688C71.0424 29.688 71.3891 29.608 71.6558 29.448C71.9224 29.2773 72.0558 29.0373 72.0558 28.728C72.0558 28.5147 71.9918 28.344 71.8638 28.216C71.7464 28.0773 71.5278 27.9547 71.2078 27.848C70.8984 27.7307 70.4291 27.6027 69.7998 27.464C68.8931 27.272 68.2211 26.9787 67.7838 26.584C67.3571 26.1893 67.1438 25.6667 67.1438 25.016C67.1438 24.5893 67.2718 24.1893 67.5278 23.816C67.7838 23.432 68.1624 23.1227 68.6638 22.888C69.1758 22.6427 69.7838 22.52 70.4878 22.52C71.2131 22.52 71.8371 22.6373 72.3598 22.872C72.8824 23.096 73.2771 23.368 73.5438 23.688C73.8211 24.008 73.9598 24.2907 73.9598 24.536C73.9598 24.632 73.9224 24.7173 73.8478 24.792C73.7838 24.856 73.7038 24.888 73.6078 24.888H72.4078C72.2904 24.888 72.1998 24.8453 72.1358 24.76C72.0611 24.7067 71.9384 24.6107 71.7678 24.472C71.6078 24.3227 71.4264 24.2053 71.2238 24.12C71.0211 24.0347 70.7758 23.992 70.4878 23.992C70.0931 23.992 69.7891 24.0773 69.5758 24.248C69.3624 24.4187 69.2558 24.6427 69.2558 24.92C69.2558 25.112 69.3038 25.272 69.3998 25.4C69.5064 25.528 69.7144 25.6507 70.0238 25.768C70.3331 25.8747 70.7971 25.9867 71.4158 26.104C73.3358 26.4773 74.2958 27.3147 74.2958 28.616C74.2958 29.3733 73.9651 29.9867 73.3038 30.456C72.6531 30.9253 71.7411 31.16 70.5677 31.16ZM79.6758 31C78.7051 31 77.9744 30.7493 77.4838 30.248C76.9931 29.736 76.7478 28.9893 76.7478 28.008V24.392H75.4838C75.3771 24.392 75.2864 24.3547 75.2118 24.28C75.1371 24.2053 75.0998 24.1147 75.0998 24.008V23.064C75.0998 22.9573 75.1371 22.8667 75.2118 22.792C75.2864 22.7173 75.3771 22.68 75.4838 22.68H76.7478V20.024C76.7478 19.9067 76.7851 19.816 76.8598 19.752C76.9344 19.6773 77.0251 19.64 77.1318 19.64H78.4598C78.5771 19.64 78.6678 19.6773 78.7318 19.752C78.8064 19.816 78.8438 19.9067 78.8438 20.024V22.68H80.8438C80.9504 22.68 81.0411 22.7173 81.1158 22.792C81.1904 22.8667 81.2278 22.9573 81.2278 23.064V24.008C81.2278 24.1147 81.1904 24.2053 81.1158 24.28C81.0411 24.3547 80.9504 24.392 80.8438 24.392H78.8438V27.832C78.8438 28.2907 78.9238 28.6373 79.0838 28.872C79.2438 29.1067 79.5051 29.224 79.8678 29.224H80.9878C81.1051 29.224 81.1958 29.2613 81.2598 29.336C81.3344 29.4 81.3718 29.4907 81.3718 29.608V30.616C81.3718 30.7227 81.3344 30.8133 81.2598 30.888C81.1958 30.9627 81.1051 31 80.9878 31H79.6758ZM86.3904 31.16C85.1957 31.16 84.2464 30.8187 83.5424 30.136C82.849 29.4533 82.481 28.4827 82.4384 27.224L82.4224 26.824C82.4224 25.4907 82.769 24.44 83.4624 23.672C84.1664 22.904 85.137 22.52 86.3744 22.52C87.6437 22.52 88.6197 22.904 89.3024 23.672C89.9957 24.44 90.3424 25.464 90.3424 26.744V27.08C90.3424 27.1867 90.305 27.2773 90.2304 27.352C90.1557 27.4267 90.0597 27.464 89.9424 27.464H84.6304V27.592C84.6517 28.1893 84.8117 28.6853 85.1104 29.08C85.4197 29.464 85.841 29.656 86.3744 29.656C86.9824 29.656 87.4784 29.4107 87.8624 28.92C87.9584 28.8027 88.033 28.7333 88.0864 28.712C88.1397 28.68 88.2304 28.664 88.3584 28.664H89.7664C89.8624 28.664 89.9424 28.6907 90.0064 28.744C90.081 28.7973 90.1184 28.872 90.1184 28.968C90.1184 29.224 89.9637 29.528 89.6544 29.88C89.3557 30.2213 88.9237 30.52 88.3584 30.776C87.793 31.032 87.137 31.16 86.3904 31.16ZM88.1344 26.104V26.072C88.1344 25.4427 87.9744 24.9413 87.6544 24.568C87.345 24.184 86.9184 23.992 86.3744 23.992C85.8304 23.992 85.4037 24.184 85.0944 24.568C84.785 24.9413 84.6304 25.4427 84.6304 26.072V26.104H88.1344ZM92.4244 31C92.3177 31 92.227 30.9627 92.1524 30.888C92.0777 30.8133 92.0404 30.7227 92.0404 30.616V23.08C92.0404 22.9627 92.0777 22.8667 92.1524 22.792C92.227 22.7173 92.3177 22.68 92.4244 22.68H93.7364C93.8537 22.68 93.9497 22.7173 94.0244 22.792C94.099 22.8667 94.1364 22.9627 94.1364 23.08V23.736C94.6697 23.032 95.4377 22.68 96.4404 22.68H97.1124C97.2297 22.68 97.3204 22.7173 97.3844 22.792C97.459 22.856 97.4964 22.9467 97.4964 23.064V24.232C97.4964 24.3387 97.459 24.4293 97.3844 24.504C97.3204 24.5787 97.2297 24.616 97.1124 24.616H95.8484C95.347 24.616 94.9524 24.76 94.6644 25.048C94.3764 25.336 94.2324 25.7307 94.2324 26.232V30.616C94.2324 30.7227 94.195 30.8133 94.1204 30.888C94.0457 30.9627 93.955 31 93.8484 31H92.4244Z" fill="white"/>
</svg>
