<svg width="146" height="60" viewBox="0 0 146 60" fill="none" xmlns="http://www.w3.org/2000/svg">
<rect y="0.856323" width="146" height="59" rx="29.5" fill="#3671E9"/>
<path d="M26.3292 36.8563C26.2092 36.8563 26.1072 36.8143 26.0232 36.7303C25.9392 36.6463 25.8972 36.5443 25.8972 36.4243V24.6883C25.8972 24.5563 25.9392 24.4543 26.0232 24.3823C26.1072 24.2983 26.2092 24.2563 26.3292 24.2563H28.0212C28.1532 24.2563 28.2552 24.2983 28.3272 24.3823C28.4112 24.4543 28.4532 24.5563 28.4532 24.6883V34.6963H34.1592C34.2912 34.6963 34.3992 34.7383 34.4832 34.8223C34.5672 34.9063 34.6092 35.0083 34.6092 35.1283V36.4243C34.6092 36.5443 34.5672 36.6463 34.4832 36.7303C34.3992 36.8143 34.2912 36.8563 34.1592 36.8563H26.3292ZM40.0495 37.0363C38.7055 37.0363 37.6375 36.6523 36.8455 35.8843C36.0655 35.1163 35.6515 34.0243 35.6035 32.6083L35.5855 32.1583C35.5855 30.6583 35.9755 29.4763 36.7555 28.6123C37.5475 27.7483 38.6395 27.3163 40.0315 27.3163C41.4595 27.3163 42.5575 27.7483 43.3255 28.6123C44.1055 29.4763 44.4955 30.6283 44.4955 32.0683V32.4463C44.4955 32.5663 44.4535 32.6683 44.3695 32.7523C44.2855 32.8363 44.1775 32.8783 44.0455 32.8783H38.0695V33.0223C38.0935 33.6943 38.2735 34.2523 38.6095 34.6963C38.9575 35.1283 39.4315 35.3443 40.0315 35.3443C40.7155 35.3443 41.2735 35.0683 41.7055 34.5163C41.8135 34.3843 41.8975 34.3063 41.9575 34.2823C42.0175 34.2463 42.1195 34.2283 42.2635 34.2283H43.8475C43.9555 34.2283 44.0455 34.2583 44.1175 34.3183C44.2015 34.3783 44.2435 34.4623 44.2435 34.5703C44.2435 34.8583 44.0695 35.2003 43.7215 35.5963C43.3855 35.9803 42.8995 36.3163 42.2635 36.6043C41.6275 36.8923 40.8895 37.0363 40.0495 37.0363ZM42.0115 31.3483V31.3123C42.0115 30.6043 41.8315 30.0403 41.4715 29.6203C41.1235 29.1883 40.6435 28.9723 40.0315 28.9723C39.4195 28.9723 38.9395 29.1883 38.5915 29.6203C38.2435 30.0403 38.0695 30.6043 38.0695 31.3123V31.3483H42.0115ZM49.1238 37.0363C48.5118 37.0363 47.9478 36.9163 47.4318 36.6763C46.9278 36.4243 46.5258 36.0883 46.2258 35.6683C45.9378 35.2483 45.7938 34.7863 45.7938 34.2823C45.7938 33.4663 46.1238 32.8063 46.7838 32.3023C47.4438 31.7983 48.3498 31.4563 49.5018 31.2763L51.9678 30.9163V30.5383C51.9678 30.0223 51.8358 29.6323 51.5718 29.3683C51.3078 29.1043 50.8878 28.9723 50.3118 28.9723C49.9158 28.9723 49.5978 29.0443 49.3578 29.1883C49.1178 29.3323 48.9198 29.4823 48.7638 29.6383C48.6198 29.7823 48.5238 29.8783 48.4758 29.9263C48.4278 30.0703 48.3378 30.1423 48.2058 30.1423H46.8018C46.6938 30.1423 46.5978 30.1063 46.5138 30.0343C46.4418 29.9623 46.4058 29.8663 46.4058 29.7463C46.4178 29.4463 46.5618 29.1103 46.8378 28.7383C47.1258 28.3543 47.5638 28.0243 48.1518 27.7483C48.7398 27.4603 49.4658 27.3163 50.3298 27.3163C51.7458 27.3163 52.7778 27.6343 53.4258 28.2703C54.0738 28.9063 54.3978 29.7403 54.3978 30.7723V36.4243C54.3978 36.5443 54.3558 36.6463 54.2718 36.7303C54.1998 36.8143 54.0978 36.8563 53.9658 36.8563H52.4718C52.3518 36.8563 52.2498 36.8143 52.1658 36.7303C52.0818 36.6463 52.0398 36.5443 52.0398 36.4243V35.7223C51.7758 36.1063 51.4038 36.4243 50.9238 36.6763C50.4438 36.9163 49.8438 37.0363 49.1238 37.0363ZM49.7358 35.3083C50.3958 35.3083 50.9358 35.0923 51.3558 34.6603C51.7758 34.2283 51.9858 33.6043 51.9858 32.7883V32.4283L50.1858 32.7163C48.8058 32.9323 48.1158 33.3943 48.1158 34.1023C48.1158 34.4863 48.2718 34.7863 48.5838 35.0023C48.9078 35.2063 49.2918 35.3083 49.7358 35.3083ZM57.1386 36.8563C57.0186 36.8563 56.9166 36.8143 56.8326 36.7303C56.7486 36.6463 56.7066 36.5443 56.7066 36.4243V27.9463C56.7066 27.8143 56.7486 27.7063 56.8326 27.6223C56.9166 27.5383 57.0186 27.4963 57.1386 27.4963H58.6146C58.7466 27.4963 58.8546 27.5383 58.9386 27.6223C59.0226 27.7063 59.0646 27.8143 59.0646 27.9463V28.6843C59.6646 27.8923 60.5286 27.4963 61.6566 27.4963H62.4126C62.5446 27.4963 62.6466 27.5383 62.7186 27.6223C62.8026 27.6943 62.8446 27.7963 62.8446 27.9283V29.2423C62.8446 29.3623 62.8026 29.4643 62.7186 29.5483C62.6466 29.6323 62.5446 29.6743 62.4126 29.6743H60.9906C60.4266 29.6743 59.9826 29.8363 59.6586 30.1603C59.3346 30.4843 59.1726 30.9283 59.1726 31.4923V36.4243C59.1726 36.5443 59.1306 36.6463 59.0466 36.7303C58.9626 36.8143 58.8606 36.8563 58.7406 36.8563H57.1386ZM64.6796 36.8563C64.5596 36.8563 64.4576 36.8143 64.3736 36.7303C64.2896 36.6463 64.2476 36.5443 64.2476 36.4243V27.9283C64.2476 27.7963 64.2896 27.6943 64.3736 27.6223C64.4576 27.5383 64.5596 27.4963 64.6796 27.4963H66.1736C66.3056 27.4963 66.4076 27.5383 66.4796 27.6223C66.5636 27.6943 66.6056 27.7963 66.6056 27.9283V28.6663C67.3376 27.7663 68.3396 27.3163 69.6116 27.3163C70.7156 27.3163 71.5916 27.6763 72.2396 28.3963C72.8876 29.1163 73.2116 30.1063 73.2116 31.3663V36.4243C73.2116 36.5443 73.1696 36.6463 73.0856 36.7303C73.0136 36.8143 72.9116 36.8563 72.7796 36.8563H71.1596C71.0396 36.8563 70.9376 36.8143 70.8536 36.7303C70.7696 36.6463 70.7276 36.5443 70.7276 36.4243V31.4743C70.7276 30.7783 70.5536 30.2383 70.2056 29.8543C69.8696 29.4583 69.3836 29.2603 68.7476 29.2603C68.1356 29.2603 67.6436 29.4583 67.2716 29.8543C66.8996 30.2503 66.7136 30.7903 66.7136 31.4743V36.4243C66.7136 36.5443 66.6716 36.6463 66.5876 36.7303C66.5156 36.8143 66.4136 36.8563 66.2816 36.8563H64.6796ZM80.2413 36.8563C80.1213 36.8563 80.0193 36.8143 79.9353 36.7303C79.8513 36.6463 79.8093 36.5443 79.8093 36.4243V24.7063C79.8093 24.5743 79.8453 24.4663 79.9173 24.3823C80.0013 24.2983 80.1093 24.2563 80.2413 24.2563H81.6993C81.9273 24.2563 82.1073 24.3703 82.2393 24.5983L85.7133 31.0423L89.1873 24.5983C89.3193 24.3703 89.4993 24.2563 89.7273 24.2563H91.1673C91.2993 24.2563 91.4073 24.2983 91.4913 24.3823C91.5753 24.4663 91.6173 24.5743 91.6173 24.7063V36.4243C91.6173 36.5563 91.5753 36.6643 91.4913 36.7483C91.4073 36.8203 91.2993 36.8563 91.1673 36.8563H89.6193C89.4993 36.8563 89.3973 36.8143 89.3133 36.7303C89.2293 36.6463 89.1873 36.5443 89.1873 36.4243V28.6843L86.6853 33.4363C86.5533 33.7003 86.3553 33.8323 86.0913 33.8323H85.3353C85.0833 33.8323 84.8793 33.7003 84.7233 33.4363L82.2213 28.6843V36.4243C82.2213 36.5443 82.1793 36.6463 82.0953 36.7303C82.0233 36.8143 81.9213 36.8563 81.7893 36.8563H80.2413ZM98.3587 37.0363C96.9427 37.0363 95.8507 36.6763 95.0827 35.9563C94.3147 35.2363 93.9007 34.2403 93.8407 32.9683L93.8227 32.1763L93.8407 31.3843C93.9007 30.1243 94.3207 29.1343 95.1007 28.4143C95.8807 27.6823 96.9667 27.3163 98.3587 27.3163C99.7387 27.3163 100.819 27.6823 101.599 28.4143C102.379 29.1343 102.799 30.1243 102.859 31.3843C102.871 31.5283 102.877 31.7923 102.877 32.1763C102.877 32.5603 102.871 32.8243 102.859 32.9683C102.799 34.2403 102.385 35.2363 101.617 35.9563C100.849 36.6763 99.7627 37.0363 98.3587 37.0363ZM98.3587 35.2183C98.9947 35.2183 99.4807 35.0203 99.8167 34.6243C100.165 34.2283 100.351 33.6463 100.375 32.8783C100.387 32.7583 100.393 32.5243 100.393 32.1763C100.393 31.8283 100.387 31.5943 100.375 31.4743C100.351 30.7063 100.165 30.1243 99.8167 29.7283C99.4687 29.3203 98.9827 29.1163 98.3587 29.1163C97.7227 29.1163 97.2307 29.3203 96.8827 29.7283C96.5347 30.1243 96.3487 30.7063 96.3247 31.4743L96.3067 32.1763L96.3247 32.8783C96.3487 33.6463 96.5347 34.2283 96.8827 34.6243C97.2307 35.0203 97.7227 35.2183 98.3587 35.2183ZM105.303 36.8563C105.183 36.8563 105.081 36.8143 104.997 36.7303C104.913 36.6463 104.871 36.5443 104.871 36.4243V27.9463C104.871 27.8143 104.913 27.7063 104.997 27.6223C105.081 27.5383 105.183 27.4963 105.303 27.4963H106.779C106.911 27.4963 107.019 27.5383 107.103 27.6223C107.187 27.7063 107.229 27.8143 107.229 27.9463V28.6843C107.829 27.8923 108.693 27.4963 109.821 27.4963H110.577C110.709 27.4963 110.811 27.5383 110.883 27.6223C110.967 27.6943 111.009 27.7963 111.009 27.9283V29.2423C111.009 29.3623 110.967 29.4643 110.883 29.5483C110.811 29.6323 110.709 29.6743 110.577 29.6743H109.155C108.591 29.6743 108.147 29.8363 107.823 30.1603C107.499 30.4843 107.337 30.9283 107.337 31.4923V36.4243C107.337 36.5443 107.295 36.6463 107.211 36.7303C107.127 36.8143 107.025 36.8563 106.905 36.8563H105.303ZM116.339 37.0363C114.995 37.0363 113.927 36.6523 113.135 35.8843C112.355 35.1163 111.941 34.0243 111.893 32.6083L111.875 32.1583C111.875 30.6583 112.265 29.4763 113.045 28.6123C113.837 27.7483 114.929 27.3163 116.321 27.3163C117.749 27.3163 118.847 27.7483 119.615 28.6123C120.395 29.4763 120.785 30.6283 120.785 32.0683V32.4463C120.785 32.5663 120.743 32.6683 120.659 32.7523C120.575 32.8363 120.467 32.8783 120.335 32.8783H114.359V33.0223C114.383 33.6943 114.563 34.2523 114.899 34.6963C115.247 35.1283 115.721 35.3443 116.321 35.3443C117.005 35.3443 117.563 35.0683 117.995 34.5163C118.103 34.3843 118.187 34.3063 118.247 34.2823C118.307 34.2463 118.409 34.2283 118.553 34.2283H120.137C120.245 34.2283 120.335 34.2583 120.407 34.3183C120.491 34.3783 120.533 34.4623 120.533 34.5703C120.533 34.8583 120.359 35.2003 120.011 35.5963C119.675 35.9803 119.189 36.3163 118.553 36.6043C117.917 36.8923 117.179 37.0363 116.339 37.0363ZM118.301 31.3483V31.3123C118.301 30.6043 118.121 30.0403 117.761 29.6203C117.413 29.1883 116.933 28.9723 116.321 28.9723C115.709 28.9723 115.229 29.1883 114.881 29.6203C114.533 30.0403 114.359 30.6043 114.359 31.3123V31.3483H118.301Z" fill="white"/>
</svg>
